<?xml version="1.0" encoding="iso-8859-1"?>
<!-- Generator: Adobe Illustrator 19.1.0, SVG Export Plug-In . SVG Version: 6.00 Build 0)  -->
<svg version="1.1" id="Capa_1" xmlns="http://www.w3.org/2000/svg" xmlns:xlink="http://www.w3.org/1999/xlink" x="0px" y="0px"
	 viewBox="0 0 447.56 447.56" style="enable-background:new 0 0 447.56 447.56;" xml:space="preserve">
<g>
	<g id="XMLID_3_">
		<g>
			<path style="fill:#3D62A3;" d="M15.417,404.67l27.47,27.47c-2.8,1.41-5.91,2.17-9.14,2.17c-5.48,0-10.62-2.13-14.5-6.01
				C12.868,421.92,11.597,412.34,15.417,404.67z"/>
			<path style="fill:#3D62A3;" d="M137.107,310.45c6.38,6.38,7.65,15.96,3.84,23.63l-27.48-27.47c2.81-1.4,5.91-2.16,9.14-2.16
				C128.087,304.45,133.238,306.58,137.107,310.45z"/>
			<path style="fill:#4A78BA;" d="M392.717,54.84c26.81,26.82,41.58,62.48,41.58,100.41c0,37.92-14.77,73.58-41.58,100.4
				c-55.37,55.36-145.45,55.36-200.81,0c-55.37-55.36-55.37-145.44,0-200.81c26.82-26.82,62.47-41.59,100.4-41.59
				S365.897,28.02,392.717,54.84z M410.728,155.25c0-31.63-12.32-61.37-34.68-83.74c-22.37-22.37-52.11-34.68-83.74-34.68
				s-61.37,12.31-83.74,34.68c-22.36,22.37-34.68,52.11-34.68,83.74s12.32,61.37,34.68,83.73c22.37,22.37,52.11,34.69,83.74,34.69
				s61.37-12.32,83.74-34.69C398.408,216.62,410.728,186.88,410.728,155.25z"/>
			<path style="fill:#C4804D;" d="M186.128,268.14l-36.72,36.71c-0.94-1.25-1.97-2.45-3.11-3.59c-1.13-1.14-2.34-2.18-3.6-3.13
				l36.71-36.7c1.08,1.15,2.18,2.29,3.3,3.41C183.837,265.97,184.977,267.06,186.128,268.14z"/>
			<path style="fill:#333333;" d="M401.908,45.65c29.27,29.27,45.39,68.2,45.39,109.6s-16.12,80.32-45.39,109.59
				c-30.22,30.22-69.91,45.33-109.6,45.33c-34.11,0-68.23-11.18-96.32-33.5l-40.75,40.75c2.49,10.87-0.48,22.76-8.94,31.21
				l-88.86,88.87c-6.33,6.32-14.74,9.81-23.69,9.81s-17.36-3.49-23.69-9.81c-13.06-13.07-13.06-34.32,0-47.38l88.87-88.86
				c6.32-6.33,14.74-9.81,23.68-9.81c2.57,0,5.09,0.29,7.54,0.85l40.73-40.73c-48.29-60.79-44.35-149.73,11.83-205.92
				c29.28-29.27,68.2-45.4,109.6-45.4S372.628,16.38,401.908,45.65z M434.297,155.25c0-37.93-14.77-73.59-41.58-100.41
				c-26.82-26.82-62.48-41.59-100.41-41.59s-73.58,14.77-100.4,41.59c-55.37,55.37-55.37,145.45,0,200.81
				c55.36,55.36,145.44,55.36,200.81,0C419.527,228.83,434.297,193.17,434.297,155.25z M149.408,304.85l36.72-36.71
				c-1.15-1.08-2.29-2.17-3.42-3.3c-1.12-1.12-2.22-2.26-3.3-3.41l-36.71,36.7c1.26,0.95,2.47,1.99,3.6,3.13
				C147.438,302.4,148.467,303.6,149.408,304.85z M140.947,334.08c3.81-7.67,2.54-17.25-3.84-23.63c-3.87-3.87-9.02-6-14.5-6
				c-3.23,0-6.33,0.76-9.14,2.16L140.947,334.08z M52.838,423.71l79.67-79.68l-28.99-28.98l-79.67,79.67L52.838,423.71z
				 M42.888,432.14l-27.47-27.47c-3.82,7.67-2.55,17.25,3.83,23.63c3.88,3.88,9.02,6.01,14.5,6.01
				C36.978,434.31,40.088,433.55,42.888,432.14z"/>
			<path style="fill:#333333;" d="M376.047,71.51c22.36,22.37,34.68,52.11,34.68,83.74s-12.32,61.37-34.68,83.73
				c-22.37,22.37-52.11,34.69-83.74,34.69s-61.37-12.32-83.74-34.69c-22.36-22.36-34.68-52.1-34.68-83.73s12.32-61.37,34.68-83.74
				c22.37-22.37,52.11-34.68,83.74-34.68S353.677,49.14,376.047,71.51z M397.728,155.25c0-28.16-10.96-54.64-30.88-74.55
				c-12.06-12.06-26.54-20.83-42.33-25.88c0.3,2.66,0.46,5.35,0.46,8.05v65.57c0,13.06-3.57,25.83-10.32,36.94
				c-1.22,2.01-3.36,3.12-5.56,3.12c-1.15,0-2.31-0.3-3.36-0.95c-3.07-1.86-4.05-5.86-2.18-8.93c5.51-9.06,8.42-19.5,8.42-30.18
				V62.87c0-3.86-0.38-7.69-1.13-11.42c-3.89-0.69-7.85-1.16-11.84-1.41c1.18,4.16,1.81,8.48,1.81,12.83c0,3.59-2.91,6.5-6.5,6.5
				s-6.5-2.91-6.5-6.5c0-4.4-0.87-8.76-2.52-12.81c-3.95,0.26-7.86,0.73-11.71,1.42c1.96,3.4,3.07,7.32,3.07,11.39v65.57
				c0,12.63-10.27,22.9-22.89,22.9c-12.62,0-22.89-10.27-22.89-22.9v-11.78c0-3.59,2.91-6.5,6.5-6.5s6.5,2.91,6.5,6.5v11.78
				c0,5.46,4.44,9.9,9.89,9.9s9.89-4.44,9.89-9.9V62.87c0-3.15-1.54-6.06-4.01-7.91c-5.39,1.75-10.63,3.94-15.67,6.55
				c-0.06,0.45-0.1,0.9-0.1,1.36v32.79c0,3.59-2.91,6.5-6.5,6.5s-6.5-2.91-6.5-6.5V69.55c-3.9,2.81-7.63,5.89-11.16,9.25v49.64
				c0,3.6,0.56,7.14,1.66,10.53c1.11,3.41-0.75,7.08-4.16,8.2c-0.67,0.21-1.35,0.32-2.02,0.32c-2.74,0-5.28-1.75-6.18-4.49
				c-1.53-4.69-2.3-9.59-2.3-14.56V93.68c-4.44,6.14-8.17,12.7-11.16,19.58v15.18c0,32.1,26.11,58.21,58.21,58.21
				c12.26,0,23.99-3.76,33.91-10.89c2.92-2.09,6.98-1.43,9.07,1.49c2.1,2.91,1.43,6.98-1.48,9.07c-12.15,8.72-26.5,13.33-41.5,13.33
				c-30.65,0-56.83-19.46-66.85-46.67c-0.02,0.76-0.03,1.51-0.03,2.27c0,28.16,10.97,54.63,30.88,74.54s46.38,30.88,74.54,30.88
				s54.63-10.97,74.54-30.88C386.767,209.88,397.728,183.41,397.728,155.25z"/>
			<path style="fill:#8AD1D6;" d="M366.848,80.7c19.92,19.91,30.88,46.39,30.88,74.55s-10.96,54.63-30.88,74.54
				c-19.91,19.91-46.38,30.88-74.54,30.88s-54.63-10.97-74.54-30.88s-30.88-46.38-30.88-74.54c0-0.76,0.01-1.51,0.03-2.27
				c10.02,27.21,36.2,46.67,66.85,46.67c15,0,29.35-4.61,41.5-13.33c2.91-2.09,3.58-6.16,1.48-9.07c-2.09-2.92-6.15-3.58-9.07-1.49
				c-9.92,7.13-21.65,10.89-33.91,10.89c-32.1,0-58.21-26.11-58.21-58.21v-15.18c2.99-6.88,6.72-13.44,11.16-19.58v34.76
				c0,4.97,0.77,9.87,2.3,14.56c0.9,2.74,3.44,4.49,6.18,4.49c0.67,0,1.35-0.11,2.02-0.32c3.41-1.12,5.27-4.79,4.16-8.2
				c-1.1-3.39-1.66-6.93-1.66-10.53V78.8c3.53-3.36,7.26-6.44,11.16-9.25v26.11c0,3.59,2.91,6.5,6.5,6.5s6.5-2.91,6.5-6.5V62.87
				c0-0.46,0.04-0.91,0.1-1.36c5.04-2.61,10.28-4.8,15.67-6.55c2.47,1.85,4.01,4.76,4.01,7.91v65.57c0,5.46-4.44,9.9-9.89,9.9
				s-9.89-4.44-9.89-9.9v-11.78c0-3.59-2.91-6.5-6.5-6.5s-6.5,2.91-6.5,6.5v11.78c0,12.63,10.27,22.9,22.89,22.9
				c12.62,0,22.89-10.27,22.89-22.9V62.87c0-4.07-1.11-7.99-3.07-11.39c3.85-0.69,7.76-1.16,11.71-1.42
				c1.65,4.05,2.52,8.41,2.52,12.81c0,3.59,2.91,6.5,6.5,6.5s6.5-2.91,6.5-6.5c0-4.35-0.63-8.67-1.81-12.83
				c3.99,0.25,7.95,0.72,11.84,1.41c0.75,3.73,1.13,7.56,1.13,11.42v65.57c0,10.68-2.91,21.12-8.42,30.18
				c-1.87,3.07-0.89,7.07,2.18,8.93c1.05,0.65,2.21,0.95,3.36,0.95c2.2,0,4.34-1.11,5.56-3.12c6.75-11.11,10.32-23.88,10.32-36.94
				V62.87c0-2.7-0.16-5.39-0.46-8.05C340.307,59.87,354.788,68.64,366.848,80.7z M300.818,128.44v-28.28c0-3.59-2.91-6.5-6.5-6.5
				s-6.5,2.91-6.5,6.5v28.28c0,18.78-15.28,34.05-34.05,34.05c-9.55,0-18.73-4.06-25.18-11.15c-2.42-2.65-6.53-2.85-9.18-0.43
				c-2.66,2.42-2.85,6.53-0.43,9.18c8.91,9.79,21.59,15.4,34.79,15.4C279.707,175.49,300.818,154.39,300.818,128.44z"/>
			<path style="fill:#333333;" d="M300.818,100.16v28.28c0,25.95-21.11,47.05-47.05,47.05c-13.2,0-25.88-5.61-34.79-15.4
				c-2.42-2.65-2.23-6.76,0.43-9.18c2.65-2.42,6.76-2.22,9.18,0.43c6.45,7.09,15.63,11.15,25.18,11.15
				c18.77,0,34.05-15.27,34.05-34.05v-28.28c0-3.59,2.91-6.5,6.5-6.5S300.818,96.57,300.818,100.16z"/>
			<polygon style="fill:#C4804D;" points="132.508,344.03 52.838,423.71 23.847,394.72 103.518,315.05 			"/>
		</g>
		<g>
		</g>
	</g>
</g>
<g>
</g>
<g>
</g>
<g>
</g>
<g>
</g>
<g>
</g>
<g>
</g>
<g>
</g>
<g>
</g>
<g>
</g>
<g>
</g>
<g>
</g>
<g>
</g>
<g>
</g>
<g>
</g>
<g>
</g>
</svg>
